<?xml version="1.0" encoding="utf-8"?>
<!-- Generator: Adobe Illustrator 26.1.0, SVG Export Plug-In . SVG Version: 6.00 Build 0)  -->
<svg version="1.1" id="Layer_1" xmlns="http://www.w3.org/2000/svg" xmlns:xlink="http://www.w3.org/1999/xlink" x="0px" y="0px"
	 viewBox="0 0 1227.9 1227.8" style="enable-background:new 0 0 1227.9 1227.8;" xml:space="preserve">
<style type="text/css">
	.st0{display:none;fill:#020202;}
	.st1{fill:none;stroke:#E5E5E5;stroke-width:16;stroke-miterlimit:10;}
	.st2{fill:#E6E7E8;}
	.st3{fill:#9D9FA2;}
	.st4{fill:#B6B8BA;}
	.st5{display:none;fill:#231F20;}
	.st6{display:none;fill:#E6E7E8;}
	.st7{display:none;fill:#77787B;}
</style>
<rect x="-10" y="239.3" class="st0" width="1256.5" height="1080"/>
<path class="st1" d="M382.7,1100.1c0,0-203.4-1.9-269.4-1.9s-99.8,7.9-100.6,42.8c-0.8,34.9,12.9,48.3,72.2,48.3s70.6-2,134.8-19.9
	s112-13.3,144.3-13.3s18.7,1.9,18.7,1.9V1100.1z"/>
<rect x="1132.2" y="279.9" class="st2" width="23.4" height="806.4"/>
<circle class="st2" cx="1143.9" cy="283" r="11.7"/>
<rect x="419.4" y="1216.4" class="st3" width="31.2" height="11.9"/>
<rect x="1155.6" y="1216.4" class="st3" width="31.2" height="11.9"/>
<path class="st4" d="M381.8,1067.2H1219c4.9,0,8.9,4,8.9,8.9v135.4c0,4.9-4,8.9-8.9,8.9H381.8c-4.9,0-8.9-4-8.9-8.9v-135.4
	C372.9,1071.2,376.9,1067.2,381.8,1067.2z"/>
<path class="st5" d="M566.8,1095.7H1034c5.6,0,10.2,4.6,10.2,10.2v75.8c0,5.6-4.6,10.2-10.2,10.2H566.8c-5.6,0-10.2-4.6-10.2-10.2
	v-75.8C556.6,1100.2,561.2,1095.7,566.8,1095.7z"/>
<circle class="st6" cx="707.9" cy="1141.3" r="25.2"/>
<circle class="st6" cx="798.3" cy="1141.3" r="25.2"/>
<circle class="st6" cx="888.4" cy="1141.3" r="25.2"/>
<circle class="st6" cx="978.4" cy="1141.3" r="25.2"/>
<path class="st6" d="M635.1,1139.2c1.5,0.8,1.5,2.1,0,3l-31.2,18.2c-1.4,0.8-2.6,0.2-2.6-1.5v-35.4c0-1.7,1.2-2.3,2.6-1.5
	L635.1,1139.2z"/>
<path class="st7" d="M566.8,1095.7H1034c5.6,0,10.2,4.6,10.2,10.2v75.8c0,5.6-4.6,10.2-10.2,10.2H566.8c-5.6,0-10.2-4.6-10.2-10.2
	v-75.8C556.6,1100.2,561.2,1095.7,566.8,1095.7z"/>
</svg>
