<svg width="40" height="41" viewBox="0 0 40 41" fill="none" xmlns="http://www.w3.org/2000/svg">
<circle cx="20" cy="20.3086" r="20" fill="#DED094"/>
<path d="M25.3777 6.50457C26.1056 6.27809 26.8091 6.91669 26.6538 7.66303L20.7253 36.1693C20.5409 37.056 19.3669 37.2604 18.8936 36.4881L5.17145 14.0963C4.83084 13.5404 5.10455 12.8126 5.72699 12.6189L25.3777 6.50457Z" fill="#CF7361"/>
<path d="M23.893 13.3067C24.2835 12.9162 24.9167 12.9162 25.3072 13.3067L33.7925 21.792C34.183 22.1825 34.183 22.8157 33.7925 23.2062L25.3072 31.6915C24.9167 32.082 24.2835 32.082 23.893 31.6915L15.4077 23.2062C15.0172 22.8157 15.0172 22.1825 15.4077 21.792L23.893 13.3067Z" fill="#5C73AE"/>
</svg>
