<svg width="25" height="25" viewBox="0 0 25 25" fill="none" xmlns="http://www.w3.org/2000/svg">
<path d="M12.1094 0C5.41992 0 0 5.41992 0 12.1094C0 18.7988 5.41992 24.2188 12.1094 24.2188C18.7988 24.2188 24.2188 18.7988 24.2188 12.1094C24.2188 5.41992 18.7988 0 12.1094 0ZM11.3281 16.0156C11.3281 16.4453 10.9766 16.7969 10.5469 16.7969H8.20312C7.77344 16.7969 7.42188 16.4453 7.42188 16.0156V8.20312C7.42188 7.77344 7.77344 7.42188 8.20312 7.42188H10.5469C10.9766 7.42188 11.3281 7.77344 11.3281 8.20312V16.0156ZM16.7969 16.0156C16.7969 16.4453 16.4453 16.7969 16.0156 16.7969H13.6719C13.2422 16.7969 12.8906 16.4453 12.8906 16.0156V8.20312C12.8906 7.77344 13.2422 7.42188 13.6719 7.42188H16.0156C16.4453 7.42188 16.7969 7.77344 16.7969 8.20312V16.0156Z" fill="white"/>
</svg>
