<svg id="Layer_1" data-name="Layer 1" xmlns="http://www.w3.org/2000/svg" viewBox="0 0 1236.66 957.06"><defs><style>.cls-1{fill:#fdf5e6;}.cls-2{fill:none;stroke:#232323;stroke-width:16px;}.cls-2,.cls-7{stroke-miterlimit:10;}.cls-3{fill:#232323;}.cls-4{fill:#e5d597;}.cls-5{fill:#6d7aaf;}.cls-6{fill:#d77b67;}.cls-7{fill:#7f7f7f;stroke:#000;}</style></defs><rect class="cls-1" width="1236.66" height="957.06"/><path class="cls-2" d="M391.47,828.82s-203.39-1.9-269.4-1.9-99.78,8-100.65,42.77,12.82,48.39,72.18,48.39,70.63-2,134.83-19.94,112.05-13.29,144.33-13.29,18.71,1.9,18.71,1.9Z"/><rect class="cls-3" x="1140.92" y="8.67" width="23.4" height="806.38"/><circle class="cls-3" cx="1152.62" cy="11.7" r="11.7"/><rect class="cls-4" x="428.07" y="945.13" width="31.2" height="11.93"/><rect class="cls-4" x="1164.32" y="945.13" width="31.2" height="11.93"/><rect class="cls-5" x="381.59" y="795.91" width="855.07" height="153.19" rx="8.92"/><rect class="cls-6" x="565.32" y="824.4" width="487.6" height="96.2" rx="10.21"/><path class="cls-7" d="M57.94,823.57"/><path class="cls-7" d="M75,836.33"/><path class="cls-7" d="M86.41,829.74"/><circle class="cls-3" cx="716.58" cy="869.98" r="25.24"/><circle class="cls-3" cx="806.97" cy="869.98" r="25.24"/><circle class="cls-3" cx="897.06" cy="869.98" r="25.24"/><circle class="cls-3" cx="987.16" cy="869.98" r="25.24"/><path class="cls-6" d="M448.94,904.77"/><path class="cls-4" d="M643.82,868c1.45.8,1.46,2.13,0,3l-31.18,18.23c-1.43.84-2.59.17-2.59-1.48V852.3c0-1.65,1.18-2.34,2.62-1.55Z"/></svg>