<?xml version="1.0" encoding="utf-8"?>
<!-- Generator: Adobe Illustrator 26.1.0, SVG Export Plug-In . SVG Version: 6.00 Build 0)  -->
<svg version="1.1" id="a" xmlns="http://www.w3.org/2000/svg" xmlns:xlink="http://www.w3.org/1999/xlink" x="0px" y="0px"
	 viewBox="0 0 295.1 256.9" style="enable-background:new 0 0 295.1 256.9;" xml:space="preserve">
<style type="text/css">
	.st0{fill:none;stroke:#EDCE85;stroke-width:8;}
	.st1{fill:none;stroke:#1F648E;stroke-width:8;}
	.st2{fill:none;stroke:#F06933;stroke-width:8;}
</style>
<path class="st0" d="M149.4,5.7c-1-1.8-2.7-1.8-3.7,0L5.3,249c-1,1.8-0.2,3.2,1.8,3.2h281c2,0,2.9-1.4,1.8-3.2L149.4,5.7z"/>
<path class="st1" d="M149.2,32.4c-0.9-1.6-2.4-1.6-3.3,0L27.4,237.6c-0.9,1.6-0.2,2.8,1.6,2.8h237.1c1.8,0,2.5-1.3,1.6-2.8
	L149.2,32.4z"/>
<path class="st2" d="M149,57.4c-0.8-1.4-2.1-1.4-2.9,0L50.2,225.2c-0.8,1.4-0.1,2.6,1.5,2.6h191.6c1.6,0,2.3-1.1,1.5-2.6L149,57.4z"
	/>
<path class="st0" d="M148.9,83.8c-0.7-1.2-1.8-1.2-2.5,0L72.3,212.1c-0.7,1.2-0.1,2.2,1.3,2.2h148.2c1.4,0,2-1,1.3-2.2L148.9,83.8z"
	/>
<path class="st1" d="M148.6,110.6c-0.5-0.9-1.4-0.9-1.9,0l-50.3,88.1c-0.5,0.9-0.1,1.7,1,1.7H198c1.1,0,1.5-0.7,1-1.7
	C198.9,198.7,148.6,110.6,148.6,110.6z"/>
</svg>
