<?xml version="1.0" encoding="UTF-8"?><svg id="a" xmlns="http://www.w3.org/2000/svg" viewBox="0 0 295.09 256.88"><defs><style>.b{stroke:#edce85;}.b,.c,.d{fill:none;stroke-width:6px;}.c{stroke:#f06933;}.d{stroke:#1f648e;}</style></defs><path class="d" d="M149.47,4.36c-1.03-1.79-2.7-1.79-3.74,0L3.59,250.57c-1.03,1.79-.2,3.23,1.87,3.23H289.75c2.06,0,2.9-1.45,1.87-3.23L149.47,4.36Z"/><path class="b" d="M149.32,24.53c-.95-1.64-2.49-1.64-3.44,0L21.05,240.74c-.95,1.65-.18,2.98,1.72,2.98h249.67c1.9,0,2.67-1.33,1.72-2.98L149.32,24.53Z"/><path class="c" d="M149.23,44.91c-.9-1.57-2.35-1.57-3.25,0L39.83,230.84c-.9,1.57-.16,2.84,1.65,2.84H253.72c1.81,0,2.55-1.27,1.65-2.84L149.23,44.91Z"/><path class="d" d="M149.22,66.3c-.84-1.46-2.21-1.46-3.05,0L57.07,220.62c-.84,1.46-.16,2.64,1.52,2.64H236.79c1.68,0,2.37-1.18,1.52-2.64L149.22,66.3Z"/><path class="b" d="M149.04,86.6c-.74-1.3-1.94-1.3-2.68,0l-70.55,123.58c-.74,1.3-.13,2.35,1.36,2.35H218.23c1.49,0,2.11-1.05,1.36-2.35l-70.55-123.58Z"/></svg>